<svg width="200" height="200" viewBox="0 0 200 200" fill="none" xmlns="http://www.w3.org/2000/svg">
<g clip-path="url(#clip0_602_2)">
<path fill-rule="evenodd" clip-rule="evenodd" d="M19.7712 180.285C12.1647 137.402 25.0074 91.5066 58.257 58.257C91.5066 25.0074 137.402 12.1647 180.285 19.7712C187.892 62.654 175.049 108.55 141.799 141.799C108.55 175.049 62.654 187.892 19.7712 180.285Z" fill="#BCD8C1"/>
<path fill-rule="evenodd" clip-rule="evenodd" d="M22.226 177.83C63.6743 184.559 107.742 171.867 139.805 139.805C171.867 107.742 184.559 63.6743 177.83 22.226C136.382 15.4977 92.3147 28.189 60.2518 60.2518C28.189 92.3147 15.4976 136.382 22.226 177.83ZM19.7712 180.285C12.1646 137.402 25.0072 91.5068 58.257 58.257C91.5067 25.0072 137.402 12.1646 180.285 19.7712C187.892 62.6542 175.049 108.55 141.799 141.799C108.55 175.049 62.6542 187.892 19.7712 180.285Z" fill="black"/>
<path d="M21 177L180 20L23.5 179L21 177Z" fill="black" stroke="black" stroke-miterlimit="3.86874"/>
<path d="M88.1908 112.125L135.705 95.1707L88.5115 112.772L88.1908 112.125Z" fill="black" stroke="black" stroke-miterlimit="3.86874"/>
<path d="M125.191 75.1245L172.705 58.1707L125.512 75.7723L125.191 75.1245Z" fill="black" stroke="black" stroke-miterlimit="3.86874"/>
<path d="M49.1908 151.125L96.7045 134.171L49.5115 151.772L49.1908 151.125Z" fill="black" stroke="black" stroke-miterlimit="3.86874"/>
</g>
<defs>
<clipPath id="clip0_602_2">
<rect width="200" height="200" fill="white"/>
</clipPath>
</defs>
</svg>
