<svg width="100" height="100" viewBox="0 0 100 100" fill="none" xmlns="http://www.w3.org/2000/svg">
<rect width="100" height="100"/>
<g clip-path="url(#clip0_603_2)">
<rect width="100" height="100"/>
<path d="M21.855 81.245C19.8183 81.245 18.1283 80.5083 16.785 79.035C15.3983 77.4317 14.705 75.3733 14.705 72.86V61.095C14.705 58.5383 14.2717 56.4367 13.405 54.79C13.0583 54.0967 12.6467 53.555 12.17 53.165C11.6933 52.7317 10.935 52.4067 9.895 52.19C8.985 52.0167 8.44333 51.8433 8.27 51.67C8.09667 51.4967 8.01 51.15 8.01 50.63V49.98C8.01 49.5033 8.11833 49.2 8.335 49.07C8.595 48.8967 9.13667 48.7017 9.96 48.485C11.65 48.0083 12.7983 47.12 13.405 45.82C14.2717 44.1733 14.705 42.0283 14.705 39.385V27.815C14.705 25.2583 15.42 23.2 16.85 21.64H16.785C18.0417 20.1233 19.7533 19.365 21.92 19.365H24.455C25.0617 19.365 25.4083 19.4083 25.495 19.495C25.625 19.5817 25.69 19.9283 25.69 20.535V21.575C25.69 22.1383 25.625 22.4633 25.495 22.55C25.4083 22.6367 25.0617 22.68 24.455 22.68H22.31C20.1867 22.68 19.125 24.825 19.125 29.115V40.555C19.125 45.5817 17.11 48.8317 13.08 50.305C17.11 51.9083 19.125 55.245 19.125 60.315V71.495C19.125 75.785 20.1867 77.93 22.31 77.93H24.585C25.1483 77.93 25.4733 77.9733 25.56 78.06C25.6467 78.1467 25.69 78.4717 25.69 79.035V80.14C25.69 80.7033 25.6467 81.0283 25.56 81.115C25.4733 81.2017 25.1267 81.245 24.52 81.245H21.855ZM61.115 25.085C61.5917 25.3017 61.8083 25.605 61.765 25.995L61.375 28.27C61.3317 28.53 61.2233 28.7033 61.05 28.79C60.8767 28.8333 60.7033 28.8117 60.53 28.725C59.8367 28.4217 59.0783 28.1833 58.255 28.01C57.475 27.8367 56.6733 27.75 55.85 27.75C53.2933 27.75 51.6467 29.0283 50.91 31.585C50.6067 32.625 50.455 34.9 50.455 38.41V41.725H61.83C62.4367 41.725 62.74 42.0283 62.74 42.635V44.585C62.74 45.1917 62.4367 45.495 61.83 45.495H50.455V71.885C50.455 72.4917 50.1517 72.795 49.545 72.795H47.01C46.4033 72.795 46.1 72.4917 46.1 71.885V45.495H38.235C37.6283 45.495 37.325 45.1917 37.325 44.585V42.635C37.325 42.0283 37.6283 41.725 38.235 41.725H46.1V38.865C46.1 34.1417 46.5333 30.74 47.4 28.66C48.7433 25.54 51.43 23.98 55.46 23.98C57.4967 23.98 59.3817 24.3483 61.115 25.085ZM78.145 19.365C80.1817 19.365 81.8717 20.1017 83.215 21.575C84.6017 23.1783 85.295 25.2367 85.295 27.75V39.515C85.295 42.0717 85.7283 44.1733 86.595 45.82C86.9417 46.5133 87.3533 47.0767 87.83 47.51C88.3067 47.9 89.065 48.2033 90.105 48.42C91.015 48.5933 91.5567 48.7667 91.73 48.94C91.9033 49.1133 91.99 49.46 91.99 49.98V50.63C91.99 51.1067 91.86 51.4317 91.6 51.605C91.3833 51.7783 90.8633 51.9517 90.04 52.125C88.35 52.6017 87.2017 53.49 86.595 54.79C85.7283 56.4367 85.295 58.5817 85.295 61.225V72.795C85.295 75.3517 84.58 77.41 83.15 78.97H83.215C81.9583 80.4867 80.2467 81.245 78.08 81.245H75.545C74.9383 81.245 74.57 81.2017 74.44 81.115C74.3533 81.0283 74.31 80.6817 74.31 80.075V79.035C74.31 78.4717 74.3533 78.1467 74.44 78.06C74.57 77.9733 74.9383 77.93 75.545 77.93H77.69C79.8133 77.93 80.875 75.785 80.875 71.495V60.055C80.875 55.0283 82.89 51.7783 86.92 50.305C82.89 48.7017 80.875 45.365 80.875 40.295V29.115C80.875 24.825 79.8133 22.68 77.69 22.68H75.415C74.8517 22.68 74.5267 22.6367 74.44 22.55C74.3533 22.4633 74.31 22.1383 74.31 21.575V20.47C74.31 19.9067 74.3533 19.5817 74.44 19.495C74.5267 19.4083 74.8733 19.365 75.48 19.365H78.145Z" fill="black"/>
</g>
<defs>
<clipPath id="clip0_603_2">
<rect width="100" height="100" />
</clipPath>
</defs>
</svg>
